<?xml version="1.0" standalone="no"?>
<!DOCTYPE svg PUBLIC "-//W3C//DTD SVG 20010904//EN"
 "http://www.w3.org/TR/2001/REC-SVG-20010904/DTD/svg10.dtd">
<svg version="1.0" xmlns="http://www.w3.org/2000/svg"
     width="25.00000000pt" height="25.48000000pt" viewBox="0 0 1280.000000 904.000000"
 preserveAspectRatio="xMidYMid meet">
<metadata>
Created by potrace 1.15, written by Peter Selinger 2001-2017
</metadata>
<g transform="translate(0.000000,904.000000) scale(0.100000,-0.100000)" fill="#FFFFFF"  stroke="none">
<path d="M2240 9020 c-565 -86 -1015 -299 -1363 -644 -215 -213 -358 -424
-488 -719 -34 -78 -86 -179 -115 -225 -100 -154 -109 -176 -108 -272 0 -125
35 -181 169 -273 83 -57 145 -117 229 -222 73 -90 177 -241 228 -328 l28 -47
70 0 c79 0 77 -2 59 80 -6 28 -9 54 -6 56 3 3 55 -20 116 -50 l111 -56 0 70
c0 43 4 70 11 70 12 0 213 -50 217 -55 7 -7 -179 -109 -460 -251 -177 -89
-358 -189 -429 -236 -250 -165 -402 -350 -472 -573 -30 -94 -39 -135 -32 -135
3 0 33 11 67 25 34 14 65 25 70 25 4 0 8 -50 8 -112 l0 -112 58 57 58 57 72 0
72 0 0 -61 0 -60 41 23 c23 13 76 61 119 108 60 65 114 110 227 186 368 251
625 380 872 441 85 21 132 26 236 27 159 1 244 -9 252 -32 4 -9 0 -20 -11 -26
-106 -65 -168 -116 -331 -276 -222 -218 -257 -247 -406 -332 -123 -69 -186
-123 -218 -187 -26 -50 -32 -49 129 -16 68 14 127 25 131 25 5 0 -43 -103
-106 -230 -63 -126 -113 -230 -110 -230 2 0 34 18 70 40 36 22 73 40 83 40 14
0 28 -39 75 -198 31 -108 64 -221 73 -249 l16 -53 52 0 c29 0 55 2 58 5 3 3
-1 40 -8 82 -8 42 -12 79 -9 81 2 2 66 -53 142 -122 152 -138 145 -137 158
-32 4 31 11 58 14 61 4 2 25 -32 46 -75 l39 -80 59 0 60 0 -7 142 c-8 174 7
384 36 493 45 173 135 298 256 357 55 27 79 33 156 36 109 5 185 -12 295 -63
171 -81 284 -178 524 -450 263 -297 741 -764 1025 -1000 168 -140 274 -215
562 -394 135 -85 272 -173 305 -196 33 -23 98 -64 145 -93 47 -28 104 -70 127
-93 38 -38 83 -113 83 -138 0 -16 -231 -53 -375 -60 -261 -13 -433 11 -635 89
-69 26 -145 54 -170 61 -63 18 -471 19 -522 1 -50 -18 -55 -39 -18 -77 29 -30
39 -68 21 -79 -7 -5 -260 -82 -508 -155 -68 -20 -73 -24 -73 -50 0 -32 6 -34
116 -46 34 -4 67 -11 74 -15 13 -8 -1 -33 -102 -177 -117 -165 -104 -190 98
-200 l111 -6 13 -158 c7 -88 14 -159 17 -159 2 0 25 11 51 24 63 32 183 74
261 92 62 15 309 37 322 29 3 -3 0 -41 -8 -86 -8 -45 -12 -83 -10 -85 11 -12
182 46 378 126 339 140 480 168 794 157 458 -17 704 -70 795 -173 28 -33 32
-42 27 -81 -10 -88 -93 -167 -217 -203 -36 -11 -130 -29 -210 -41 -134 -19
-165 -20 -405 -13 -403 14 -564 7 -687 -28 -33 -10 -38 -15 -38 -42 0 -28 7
-35 69 -71 38 -22 68 -42 65 -44 -2 -3 -100 -36 -217 -75 l-212 -71 0 -30 c0
-29 2 -30 102 -58 l102 -30 -39 -61 c-170 -270 -249 -400 -247 -403 3 -2 603
-33 654 -33 7 0 -4 -23 -24 -51 -28 -39 -38 -63 -41 -103 -4 -57 10 -106 32
-106 8 0 52 18 98 40 250 119 409 80 437 -109 6 -43 8 -46 35 -43 49 5 154 52
234 105 98 63 154 110 385 321 226 205 312 271 437 335 174 89 303 129 748
231 350 81 376 88 527 137 l110 36 132 134 c174 176 177 178 377 168 116 -5
173 -3 246 9 238 38 432 123 584 255 l48 42 47 -45 c124 -115 250 -129 705
-76 291 34 555 77 906 145 471 91 688 127 960 155 272 28 450 76 586 155 198
116 244 310 96 404 -85 54 -232 81 -438 81 -129 0 -463 21 -789 50 -431 39
-907 105 -1263 175 -118 24 -444 96 -449 100 -2 1 15 72 37 159 44 176 84 417
100 606 14 160 14 558 0 720 -79 938 -427 1781 -960 2327 -208 212 -315 280
-840 537 -107 52 -280 140 -385 195 -229 121 -432 211 -875 386 -420 166 -439
174 -870 362 -423 185 -594 254 -813 327 -345 115 -523 148 -952 176 -437 28
-537 46 -972 171 -376 108 -530 138 -733 144 -110 3 -175 0 -270 -15z"/>
</g>
</svg>
